<svg version="1.1" id="fi_702596" xmlns="http://www.w3.org/2000/svg" xmlns:xlink="http://www.w3.org/1999/xlink" x="0px" y="0px" viewBox="0 0 512 512" xml:space="preserve">

<g>
	<g>
		<path d="M291.584,119.467H32.683C14.66,119.467,0,134.127,0,152.149v182.101c0,18.022,14.66,32.683,32.683,32.683h258.901
			c18.022,0,32.683-14.66,32.683-32.683V152.149C324.267,134.127,309.606,119.467,291.584,119.467z M307.2,334.251
			c0,8.61-7.006,15.616-15.616,15.616H32.683c-8.61,0-15.616-7.006-15.616-15.616V152.149c0-8.61,7.006-15.616,15.616-15.616
			h258.901c8.61,0,15.616,7.006,15.616,15.616V334.251z"></path>
	</g>
</g>
<g>
	<g>
		<path d="M221.611,424.602l-17.067-68.267c-0.947-3.797-4.361-6.468-8.277-6.468H128c-3.917,0-7.33,2.671-8.277,6.468
			l-17.067,68.267c-0.64,2.543-0.06,5.248,1.553,7.313c1.613,2.074,4.096,3.285,6.724,3.285h102.4c2.628,0,5.111-1.212,6.724-3.285
			C221.67,429.85,222.251,427.153,221.611,424.602z M121.865,418.133l12.8-51.2h54.938l12.8,51.2H121.865z"></path>
	</g>
</g>
<g>
	<g>
		<rect x="8.533" y="307.2" width="307.2" height="17.067"></rect>
	</g>
</g>
<g>
	<g>
		<rect x="85.333" y="418.133" width="153.6" height="17.067"></rect>
	</g>
</g>
<g>
	<g>
		<path d="M503.467,76.8h-153.6c-4.719,0-8.533,3.823-8.533,8.533v341.333c0,4.719,3.814,8.533,8.533,8.533h153.6
			c4.719,0,8.533-3.814,8.533-8.533V85.333C512,80.623,508.186,76.8,503.467,76.8z M494.933,418.133H358.4V93.867h136.533V418.133z"></path>
	</g>
</g>
<g>
	<g>
		<rect x="349.867" y="213.333" width="153.6" height="17.067"></rect>
	</g>
</g>
<g>
	<g>
		<rect x="349.867" y="281.6" width="153.6" height="17.067"></rect>
	</g>
</g>
<g>
	<g>
		<rect x="460.8" y="247.467" width="17.067" height="17.067"></rect>
	</g>
</g>
<g>
	<g>
		<rect x="349.867" y="349.867" width="153.6" height="17.067"></rect>
	</g>
</g>
<g>
	<g>
		<rect x="349.867" y="145.067" width="153.6" height="17.067"></rect>
	</g>
</g>
<g>
	<g>
		<rect x="375.467" y="247.467" width="68.267" height="17.067"></rect>
	</g>
</g>
<g>
	<g>
		<rect x="460.8" y="179.2" width="17.067" height="17.067"></rect>
	</g>
</g>
<g>
	<g>
		<rect x="375.467" y="179.2" width="68.267" height="17.067"></rect>
	</g>
</g>
<g>
	<g>
		<rect x="460.8" y="110.933" width="17.067" height="17.067"></rect>
	</g>
</g>
<g>
	<g>
		<rect x="375.467" y="110.933" width="68.267" height="17.067"></rect>
	</g>
</g>
<g>
	<g>
		<rect x="460.8" y="315.733" width="17.067" height="17.067"></rect>
	</g>
</g>
<g>
	<g>
		<rect x="375.467" y="315.733" width="68.267" height="17.067"></rect>
	</g>
</g>
<g>
	<g>
		<rect x="460.8" y="384" width="17.067" height="17.067"></rect>
	</g>
</g>
<g>
	<g>
		<rect x="375.467" y="384" width="68.267" height="17.067"></rect>
	</g>
</g>
<g>
	<g>
		<path d="M110.933,170.667c-28.237,0-51.2,22.963-51.2,51.2c0,28.237,22.963,51.2,51.2,51.2s51.2-22.963,51.2-51.2
			C162.133,193.63,139.17,170.667,110.933,170.667z M110.933,256C92.109,256,76.8,240.691,76.8,221.867s15.309-34.133,34.133-34.133
			s34.133,15.309,34.133,34.133S129.758,256,110.933,256z"></path>
	</g>
</g>
<g>
	<g>
		<rect x="42.667" y="213.333" width="25.6" height="17.067"></rect>
	</g>
</g>
<g>
	<g>
		<rect x="153.6" y="213.333" width="25.6" height="17.067"></rect>
	</g>
</g>
<g>
	<g>
		
			<rect x="58.862" y="252.583" transform="matrix(0.7071 -0.7071 0.7071 0.7071 -163.6504 127.1457)" width="25.583" height="17.067"></rect>
	</g>
</g>
<g>
	<g>
		
			<rect x="137.388" y="174.086" transform="matrix(0.7071 -0.7071 0.7071 0.7071 -85.1447 159.6814)" width="25.583" height="17.066"></rect>
	</g>
</g>
<g>
	<g>
		<rect x="102.4" y="153.6" width="17.067" height="25.6"></rect>
	</g>
</g>
<g>
	<g>
		<rect x="102.4" y="264.533" width="17.067" height="25.6"></rect>
	</g>
</g>
<g>
	<g>
		
			<rect x="63.143" y="169.816" transform="matrix(0.7071 -0.7071 0.7071 0.7071 -108.1294 104.1673)" width="17.066" height="25.583"></rect>
	</g>
</g>
<g>
	<g>
		
			<rect x="141.641" y="248.325" transform="matrix(0.7071 -0.7071 0.7071 0.7071 -140.6523 182.6683)" width="17.066" height="25.583"></rect>
	</g>
</g>
<g>
	<g>
		<rect x="102.4" y="213.333" width="17.067" height="17.067"></rect>
	</g>
</g>
<g>
	<g>
		<path d="M238.933,196.267c-14.114,0-25.6,11.486-25.6,25.6s11.486,25.6,25.6,25.6s25.6-11.486,25.6-25.6
			S253.047,196.267,238.933,196.267z M238.933,230.4c-4.702,0-8.533-3.831-8.533-8.533c0-4.702,3.831-8.533,8.533-8.533
			c4.702,0,8.533,3.831,8.533,8.533C247.467,226.569,243.635,230.4,238.933,230.4z"></path>
	</g>
</g>
<g>
	<g>
		<rect x="230.4" y="179.2" width="17.067" height="25.6"></rect>
	</g>
</g>
<g>
	<g>
		<rect x="230.4" y="238.933" width="17.067" height="25.6"></rect>
	</g>
</g>
<g>
	<g>
		
			<rect x="204.535" y="194.127" transform="matrix(0.4997 -0.8662 0.8662 0.4997 -72.6411 288.0856)" width="17.067" height="25.6"></rect>
	</g>
</g>
<g>
	<g>
		
			<rect x="256.271" y="223.993" transform="matrix(0.4998 -0.8662 0.8662 0.4998 -72.6379 347.8129)" width="17.068" height="25.601"></rect>
	</g>
</g>
<g>
	<g>
		
			<rect x="200.282" y="228.26" transform="matrix(0.8663 -0.4996 0.4996 0.8663 -89.8018 138.1188)" width="25.601" height="17.067"></rect>
	</g>
</g>
<g>
	<g>
		
			<rect x="251.995" y="198.397" transform="matrix(0.8663 -0.4996 0.4996 0.8663 -67.9667 159.9598)" width="25.601" height="17.067"></rect>
	</g>
</g>
<g>
</g>
<g>
</g>
<g>
</g>
<g>
</g>
<g>
</g>
<g>
</g>
<g>
</g>
<g>
</g>
<g>
</g>
<g>
</g>
<g>
</g>
<g>
</g>
<g>
</g>
<g>
</g>
<g>
</g>
</svg>